<svg width="245" height="40" viewBox="0 0 245 40" fill="none" xmlns="http://www.w3.org/2000/svg">
<path fill-rule="evenodd" clip-rule="evenodd" d="M38.2157 14.9091C38.1964 14.9811 38.1922 15.0536 38.2009 15.1233L22.4153 18.9433C21.5984 19.1409 20.8607 18.4049 21.0587 17.5896L24.8085 2.15596C25.0997 2.21983 25.3923 2.0443 25.4701 1.75403C25.5501 1.45531 25.3723 1.14807 25.0729 1.06784C24.7734 0.987617 24.4658 1.16477 24.3858 1.46349C24.308 1.75376 24.4736 2.05207 24.7577 2.14234L20.2882 17.3831C20.0521 18.1882 19.0452 18.4568 18.4365 17.8772L6.67589 6.67631C6.71841 6.62033 6.75088 6.55528 6.77016 6.48331C6.8502 6.18459 6.67234 5.87735 6.37294 5.79712C6.07353 5.71689 5.76587 5.89405 5.68583 6.19277C5.60579 6.49149 5.78365 6.79873 6.08306 6.87896C6.29749 6.93641 6.51606 6.86193 6.65238 6.70525L17.8729 18.4398C18.4537 19.0472 18.1845 20.0521 17.3778 20.2877L1.79326 24.8398C1.75354 24.6359 1.60149 24.4621 1.38706 24.4047C1.08765 24.3244 0.779997 24.5016 0.699956 24.8003C0.619914 25.099 0.797774 25.4063 1.09718 25.4865C1.39659 25.5667 1.70424 25.3896 1.78429 25.0909C1.80357 25.0189 1.80798 24.9463 1.79914 24.8766L17.5846 21.0568C18.4015 20.859 19.1392 21.5952 18.9411 22.4105L15.1915 37.844C14.9003 37.7801 14.6077 37.9557 14.5299 38.2459C14.4499 38.5447 14.6277 38.8519 14.9271 38.9321C15.2266 39.0124 15.5342 38.8352 15.6143 38.5365C15.692 38.2462 15.5264 37.9479 15.2423 37.8576L19.7116 22.617C19.9478 21.8119 20.9547 21.5431 21.5633 22.1229L33.3241 33.3238C33.2817 33.3798 33.2491 33.4447 33.2298 33.5167C33.1498 33.8154 33.3277 34.1226 33.6271 34.2029C33.9265 34.2831 34.2341 34.1059 34.3142 33.8072C34.3942 33.5085 34.2164 33.2012 33.9169 33.121C33.7025 33.0636 33.4838 33.1381 33.3476 33.2949L22.127 21.5603C21.5461 20.9528 21.8154 19.948 22.6222 19.7124L38.2068 15.1601C38.2464 15.3639 38.3985 15.5379 38.6129 15.5953C38.9124 15.6755 39.22 15.4984 39.3 15.1997C39.3801 14.9009 39.2022 14.5937 38.9028 14.5135C38.6034 14.4333 38.2958 14.6104 38.2157 14.9091Z" fill="white"/>
<path fill-rule="evenodd" clip-rule="evenodd" d="M38.2141 15.1582C38.2198 15.1879 38.228 15.2169 38.2384 15.2451C38.2401 15.2498 38.2419 15.2545 38.2438 15.2592C38.2774 15.3434 38.3312 15.4189 38.4009 15.4784C38.4626 15.5311 38.5368 15.5712 38.6204 15.5936C38.9199 15.6738 39.2277 15.4966 39.3078 15.1978C39.3878 14.8989 39.2099 14.5916 38.9104 14.5113C38.6803 14.4496 38.4453 14.54 38.3124 14.7207C38.2723 14.7751 38.2415 14.8379 38.223 14.9071C38.2037 14.9791 38.1995 15.0516 38.2082 15.1213L22.4162 18.9429C21.599 19.1406 20.861 18.4043 21.0591 17.5886L24.8105 2.14885C24.939 2.17704 25.0678 2.1586 25.1783 2.10425C25.3182 2.03542 25.4288 1.90901 25.4723 1.74676C25.5524 1.44792 25.3744 1.14056 25.0749 1.0603C24.7754 0.980039 24.4676 1.15726 24.3875 1.4561C24.344 1.61835 24.3766 1.78311 24.4634 1.91268C24.5319 2.015 24.6342 2.09538 24.7596 2.13523L20.2883 17.3821C20.0521 18.1875 19.0448 18.4562 18.4359 17.8764L6.67058 6.67101C6.71312 6.61501 6.7456 6.54994 6.76489 6.47794C6.78343 6.40876 6.78814 6.33912 6.78072 6.27195C6.75607 6.04896 6.5977 5.85315 6.36751 5.79147C6.06798 5.71122 5.7602 5.88844 5.68013 6.18728C5.60006 6.48612 5.77799 6.79349 6.07752 6.87374C6.1611 6.89614 6.24531 6.8985 6.32504 6.88376C6.4153 6.86708 6.49982 6.82848 6.57117 6.77225C6.57508 6.76917 6.57895 6.76603 6.58278 6.76285C6.60577 6.74372 6.62728 6.72271 6.64707 6.69997L17.8721 18.4392C18.4531 19.0469 18.1837 20.0521 17.3768 20.2879L1.786 24.8417C1.78023 24.8121 1.7721 24.7832 1.76176 24.7551C1.76004 24.7505 1.75826 24.7458 1.75641 24.7412C1.72273 24.6568 1.66884 24.5811 1.59901 24.5215C1.53733 24.4689 1.46322 24.4289 1.37964 24.4065C1.08011 24.3262 0.772333 24.5034 0.69226 24.8023C0.612186 25.1011 0.790116 25.4085 1.08964 25.4887C1.31983 25.5504 1.55489 25.46 1.68773 25.2792C1.72775 25.2248 1.75849 25.1621 1.77702 25.0929C1.79631 25.0209 1.80072 24.9483 1.79188 24.8786L17.5836 21.0572C18.4009 20.8594 19.1388 21.5959 18.9407 22.4115L15.1896 37.8512C15.061 37.823 14.9322 37.8414 14.8217 37.8958C14.6818 37.9646 14.5712 38.091 14.5277 38.2533C14.4477 38.5521 14.6256 38.8595 14.9251 38.9397C15.2247 39.02 15.5324 38.8428 15.6125 38.5439C15.656 38.3817 15.6234 38.2169 15.5367 38.0874C15.4681 37.985 15.3658 37.9047 15.2404 37.8648L19.7115 22.618C19.9478 21.8126 20.9551 21.5438 21.5639 22.1238L33.3294 33.3292C33.287 33.3852 33.2544 33.4501 33.2351 33.5221C33.2166 33.5913 33.2119 33.6611 33.2193 33.7283C33.244 33.9512 33.4024 34.1469 33.6325 34.2086C33.932 34.2888 34.2398 34.1116 34.3199 33.8128C34.4 33.5139 34.222 33.2066 33.9225 33.1263C33.8389 33.1039 33.7546 33.1016 33.6749 33.1163C33.5848 33.133 33.5004 33.1715 33.4292 33.2276C33.4252 33.2307 33.4213 33.2339 33.4174 33.2371C33.3944 33.2563 33.3728 33.2774 33.3529 33.3002L22.1279 21.5609C21.5467 20.9532 21.8161 19.948 22.6232 19.7123L38.2141 15.1582ZM33.4072 32.7891L22.412 21.2903C22.0343 20.8953 22.2094 20.2419 22.734 20.0887L38.0055 15.6279C38.1291 15.7906 38.3058 15.9153 38.5189 15.9724C39.0281 16.1088 39.5513 15.8075 39.6874 15.2995C39.8236 14.7915 39.5211 14.269 39.0119 14.1325C38.5027 13.9961 37.9795 14.2973 37.8433 14.8054C37.8433 14.8056 37.8432 14.8058 37.8432 14.806L22.3232 18.5617C21.792 18.6903 21.3123 18.2116 21.4411 17.6814L25.1211 2.53511C25.4641 2.46525 25.7554 2.20888 25.8519 1.84849C25.9881 1.34045 25.6856 0.817946 25.1764 0.681503C24.6672 0.54506 24.144 0.846328 24.0078 1.35437C23.9113 1.71476 24.0353 2.08239 24.2975 2.31441L19.9112 17.2715C19.7576 17.795 19.1029 17.9697 18.7071 17.5928L7.14436 6.5804C7.14443 6.58016 7.14449 6.57992 7.14456 6.57967C7.28069 6.07163 6.97822 5.54912 6.46901 5.41268C5.95979 5.27624 5.43659 5.57751 5.30046 6.08555C5.16433 6.59359 5.46681 7.1161 5.97602 7.25254C6.18916 7.30965 6.40448 7.29002 6.59277 7.21097L17.5879 18.7098C17.5879 18.7098 17.5879 18.7098 17.5879 18.7098C17.9656 19.1048 17.7905 19.7582 17.2659 19.9115L1.99447 24.372C1.87093 24.2094 1.69428 24.0848 1.48113 24.0277C0.971922 23.8912 0.448722 24.1925 0.312593 24.7005C0.176463 25.2086 0.478934 25.7311 0.988146 25.8675C1.49736 26.004 2.02056 25.7027 2.15669 25.1947C2.15675 25.1944 2.15682 25.1942 2.15688 25.1939L17.6766 21.4384C18.2078 21.3098 18.6875 21.7885 18.5588 22.3187L14.8789 37.4649C14.5359 37.5348 14.2446 37.7912 14.1481 38.1515C14.0119 38.6596 14.3144 39.1821 14.8236 39.3185C15.3328 39.455 15.856 39.1537 15.9922 38.6457C16.0887 38.2853 15.9647 37.9176 15.7026 37.6856L20.0887 22.7286C20.2423 22.2051 20.897 22.0304 21.2927 22.4073L32.8556 33.4198C32.8556 33.42 32.8555 33.4202 32.8555 33.4204C32.7193 33.9284 33.0218 34.4509 33.531 34.5874C34.0402 34.7238 34.5634 34.4225 34.6996 33.9145C34.8357 33.4065 34.5332 32.8839 34.024 32.7475C33.8109 32.6904 33.5955 32.7101 33.4072 32.7891Z" fill="white"/>
<path d="M91.2454 2.09378H68.1701L63.241 6.97928L56 38.386H69.0425L70.6129 31.494H75.2366L73.6663 38.386H86.7525L93.9062 7.41549L91.2454 2.09378ZM73.1865 20.3272L74.7568 13.566H79.3806L77.8102 20.3272H73.1865Z" fill="white"/>
<path d="M98.8381 1.9193L90.3757 38.5169H105.556L114.018 1.9193H98.8381Z" fill="white"/>
<path d="M154.395 12.7808L157.143 0.916029H118.67L115.922 12.7808H127.001L123.599 27.4809H111.603L108.811 39.6074H149.379L152.17 27.4809H139.826L143.228 12.7808H154.395Z" fill="white"/>
<path d="M200.676 0H162.77L156.794 25.8233H155.006L152.912 34.9836H155.878L152.955 37.0774L152.301 40H168.397L172.934 34.9836H174.809L177.47 40H192.694L193.392 36.9902L191.167 34.9836H194.264L196.401 25.8233H194.7L200.676 0ZM186.456 8.81134L186.107 10.2508H172.192L172.541 8.81134H186.456ZM184.886 15.5725H170.971L171.32 14.133H185.235L184.886 15.5725ZM183.97 19.4547L183.664 20.8942H169.749L170.055 19.4547H183.97ZM182.748 24.7764L182.399 26.2595H168.484L168.833 24.7764H182.748Z" fill="white"/>
<path d="M242.421 11.3413L244.995 0.218102H205.605L203.032 11.3413H214.504L213.762 14.6565H203.119L200.676 25.2563H211.32L210.578 28.5278H198.059L195.442 39.8255H236.838L239.455 28.5278H226.805L227.546 25.2563H238.452L240.894 14.6565H229.989L230.731 11.3413H242.421Z" fill="white"/>
</svg>
